<?xml version="1.0" encoding="utf-8"?>
<!-- Generator: Adobe Illustrator 27.2.0, SVG Export Plug-In . SVG Version: 6.00 Build 0)  -->
<svg version="1.1" id="Layer_1" xmlns="http://www.w3.org/2000/svg" xmlns:xlink="http://www.w3.org/1999/xlink" x="0px" y="0px"
	 viewBox="0 0 1920 1080" style="enable-background:new 0 0 1920 1080;" xml:space="preserve">
<style type="text/css">
	.st0{fill:#FFFFFF;}
	.st1{fill:#E51F30;}
</style>
<g>
	<polygon class="st1" points="349,557.76 399.43,677.52 399.43,501.02 349,381.26 	"/>
	<polygon class="st1" points="248.07,507.42 210.33,507.42 210.33,696.43 380.52,696.43 248.07,646 	"/>
	<polygon class="st1" points="317.49,475.81 279.67,437.99 279.67,614.48 386.82,683.82 317.49,586.12 	"/>
	<polygon class="st1" points="576,646 443.55,696.43 613.74,696.43 613.74,507.42 576,507.42 	"/>
	<polygon class="st1" points="475.07,381.26 424.64,501.02 424.64,677.52 475.07,557.76 	"/>
	<polygon class="st1" points="544.41,437.99 506.59,475.81 506.59,586.12 437.25,683.82 544.41,614.48 	"/>
	<path class="st1" d="M866.06,491.37h0.05c9.06,0,16.83-1.74,23.3-5.22c6.47-3.48,11.4-8.27,14.79-14.38
		c3.39-6.1,5.09-13.13,5.09-21.08c0-8.32-1.74-15.55-5.22-21.68c-3.48-6.13-8.58-10.87-15.3-14.19c-6.72-3.33-14.79-4.99-24.22-4.99
		h-63.48v133.32h26.81v-51.78h22.15l29.49,51.78h30.05l-28.31-47.48L866.06,491.37z M827.88,471.21v-40.77h30.56
		c4.68,0,8.81,0.69,12.39,2.08c3.57,1.39,6.41,3.61,8.51,6.66c2.09,3.05,3.14,7.01,3.14,11.88c0,7.03-2.23,12.14-6.7,15.35
		c-4.47,3.21-10.53,4.81-18.17,4.81H827.88z"/>
	<path class="st1" d="M1282.99,644.65h0.05c9.06,0,16.83-1.74,23.3-5.22c6.47-3.48,11.4-8.27,14.79-14.38
		c3.39-6.1,5.09-13.13,5.09-21.08c0-8.32-1.74-15.55-5.22-21.68c-3.48-6.13-8.58-10.87-15.3-14.19c-6.72-3.33-14.79-4.99-24.23-4.99
		H1218v133.32h26.81v-51.78h22.15l29.49,51.78h30.05l-28.31-47.48L1282.99,644.65z M1244.81,624.5v-40.77h30.56
		c4.68,0,8.81,0.69,12.39,2.08c3.57,1.39,6.41,3.61,8.51,6.66c2.09,3.05,3.14,7.01,3.14,11.88c0,7.03-2.23,12.14-6.7,15.35
		c-4.47,3.21-10.53,4.81-18.17,4.81H1244.81z"/>
	<rect x="926.59" y="409.91" class="st1" width="26.81" height="133.32"/>
	<polygon class="st1" points="998.19,486.45 1052.67,486.45 1052.67,465.83 998.19,465.83 998.19,431.92 1057.27,431.92 
		1057.27,409.82 972.03,409.82 972.03,543.14 998.19,543.14 	"/>
	<polygon class="st1" points="1154.55,465.83 1100.08,465.83 1100.08,431.92 1159.15,431.92 1159.15,409.82 1073.91,409.82 
		1073.91,543.14 1100.08,543.14 1100.08,486.45 1154.55,486.45 	"/>
	<rect x="1175.8" y="409.91" class="st1" width="26.81" height="133.32"/>
	<polygon class="st1" points="1258.92,543.14 1284.9,543.14 1284.9,432.29 1324.56,432.29 1324.56,409.82 1219.25,409.82 
		1219.25,432.29 1258.92,432.29 	"/>
	<polygon class="st1" points="1425.91,464.39 1367.37,464.39 1367.37,409.82 1341.21,409.82 1341.21,543.14 1367.37,543.14 
		1367.37,487.17 1425.91,487.17 1425.91,543.14 1451.99,543.14 1451.99,409.82 1425.91,409.82 	"/>
	<path class="st1" d="M756.25,645.3c0,10.05-2.42,17.66-7.26,22.84c-4.84,5.18-12.31,7.77-22.42,7.77
		c-10.05,0-17.52-2.59-22.42-7.77c-4.9-5.18-7.35-12.79-7.35-22.84V563.1h-26.72v83.77c0,10.6,2.13,19.79,6.38,27.55
		c4.25,7.77,10.6,13.75,19.05,17.94c8.44,4.19,18.8,6.29,31.07,6.29c12.33,0,22.68-2.1,31.07-6.29c8.38-4.19,14.72-10.15,19-17.89
		c4.28-7.73,6.43-16.93,6.43-27.6V563.1h-26.81V645.3z"/>
	<path class="st1" d="M883.63,654.27h-0.37c-2.22-4.25-4.47-8.2-6.75-11.83l-49-79.33h-26.44v133.32h25.61v-90.79h0.37
		c2.16,4.01,4.41,7.89,6.75,11.65l49,79.14h26.35V563.1h-25.52V654.27z"/>
	<rect x="926.59" y="563.2" class="st1" width="26.81" height="133.32"/>
	<path class="st1" d="M1038.49,654.45c-1.73,5.42-3.39,11.46-4.99,18.12h-0.93c-1.66-6.66-3.33-12.7-4.99-18.12l-28.87-91.35h-28.48
		l46.35,133.32h32.91l46.26-133.32h-28.57L1038.49,654.45z"/>
	<polygon class="st1" points="1110.6,696.43 1201.02,696.43 1201.02,674.33 1136.76,674.33 1136.76,639.71 1193.07,639.71 
		1193.07,619.09 1136.76,619.09 1136.76,585.2 1201.02,585.2 1201.02,563.1 1110.6,563.1 	"/>
	<path class="st1" d="M1418.07,624.17c-6.9-2.87-15.87-5.35-26.9-7.44c-6.16-1.42-10.99-2.79-14.47-4.11
		c-3.48-1.33-6.01-3.05-7.58-5.18c-1.57-2.13-2.36-4.88-2.36-8.28c0-3.33,0.86-6.22,2.59-8.69c1.73-2.46,4.25-4.36,7.58-5.69
		c3.33-1.33,7.21-1.99,11.65-1.99c4.56,0,8.55,0.83,11.97,2.5c3.42,1.66,6.16,4.12,8.23,7.35c2.06,3.24,3.31,7.04,3.75,11.42
		l26.07-3.14c-1.05-8.51-3.64-15.73-7.77-21.68c-4.13-5.95-9.75-10.5-16.87-13.64c-7.12-3.14-15.43-4.71-24.92-4.71
		c-10.11,0-18.85,1.66-26.21,4.99c-7.37,3.33-13.01,8.09-16.92,14.29c-3.91,6.19-5.87,13.64-5.87,22.33c0,8.14,1.8,14.72,5.41,19.74
		c3.61,5.02,8.77,8.99,15.49,11.88c6.72,2.9,15.38,5.3,25.98,7.21c6.1,1.11,10.97,2.42,14.61,3.93c3.64,1.51,6.36,3.44,8.18,5.78
		c1.82,2.34,2.73,5.3,2.73,8.88c0,3.64-0.97,6.74-2.91,9.29c-1.94,2.56-4.62,4.47-8.05,5.73c-3.42,1.26-7.57,1.9-12.43,1.9
		c-5.43,0-10.03-0.98-13.82-2.96c-3.79-1.97-6.79-4.71-9.01-8.23c-2.22-3.51-3.6-7.55-4.16-12.11l-26.54,3.24
		c1.29,9,4.14,16.6,8.55,22.79c4.41,6.19,10.37,10.94,17.89,14.24c7.52,3.3,16.55,4.95,27.09,4.95c10.48,0,19.51-1.56,27.09-4.67
		c7.58-3.11,13.44-7.78,17.57-14.01c4.13-6.22,6.2-13.9,6.2-23.02c0-8.51-1.91-15.39-5.73-20.66
		C1430.33,631.11,1424.97,627.04,1418.07,624.17z"/>
	<rect x="1453.97" y="563.2" class="st1" width="26.81" height="133.32"/>
	<path class="st1" d="M1681.38,563.1l-29.59,52.79c-0.68,1.23-1.31,2.5-1.9,3.79c-0.59,1.3-1.1,2.44-1.53,3.42H1648
		c-0.55-1.05-1.14-2.22-1.76-3.51c-0.62-1.3-1.29-2.56-2.03-3.79l-29.49-52.7h-12.18h-16.21h-89.1v22.47h39.66v110.86h25.98V585.57
		h36.8l35.47,59.73v51.13h26.07v-51.41l48.45-81.92H1681.38z"/>
	<path class="st1" d="M692.94,537.03c9.07,5.55,19.78,8.33,32.12,8.33c10.61,0,19.41-1.8,26.39-5.42
		c6.46-3.34,11.75-8.26,15.88-14.75c0.33-0.52-6.9,18.04-6.9,18.04h22.5v-72.02h-55.36v20h29.35c-0.8,11.29-3.69,18.87-8.66,23.84
		c-4.97,4.97-12.05,7.45-21.25,7.45c-7.47,0-13.79-1.79-18.98-5.37c-5.18-3.58-9.09-8.76-11.71-15.55
		c-2.62-6.79-3.93-15.06-3.93-24.81c0-9.63,1.28-17.9,3.84-24.81c2.56-6.91,6.39-12.22,11.48-15.92c5.09-3.7,11.43-5.55,19.03-5.55
		c5.55,0,10.31,0.96,14.26,2.87c3.95,1.91,7.18,4.72,9.67,8.42c2.5,3.7,4.43,8.33,5.79,13.89l25.27-4.72
		c-2.04-9.19-5.43-17.02-10.18-23.47c-4.75-6.45-10.86-11.37-18.33-14.77c-7.47-3.39-16.17-5.09-26.11-5.09
		c-12.96,0-24.13,2.87-33.51,8.61c-9.38,5.74-16.52,13.84-21.43,24.3c-4.91,10.46-7.36,22.63-7.36,36.52
		c0,13.89,2.42,25.97,7.27,36.24C676.91,523.56,683.87,531.48,692.94,537.03z"/>
</g>
</svg>
